<svg width="852" height="852" viewBox="0 0 852 852" fill="none" xmlns="http://www.w3.org/2000/svg">
<path fill-rule="evenodd" clip-rule="evenodd" d="M580.644 321.913C574.6 321.906 568.553 321.9 562.5 321.9L562.6 322.3C556.245 322.3 549.897 322.294 543.553 322.287C524.541 322.269 505.57 322.25 486.6 322.4C482.6 322.4 481.8 321.4 483 317.6C484.539 312.562 485.834 307.474 487.124 302.407C487.677 300.232 488.23 298.062 488.8 295.9C490.914 287.822 493.028 279.748 495.141 271.675C505.325 232.776 515.497 193.922 525.6 155C528.2 145.1 525.1 135.5 517.1 130.8C514.065 129.028 511.054 127.22 508.044 125.413C498.654 119.776 489.271 114.143 479.2 109.6C478.388 109.239 477.549 108.924 476.708 108.607C474.75 107.871 472.779 107.129 471.1 105.8C459.8 97.1 451.4 98.2 442.5 109.5C440.15 112.45 437.825 115.375 435.5 118.3C433.175 121.225 430.85 124.15 428.5 127.1C390 175.1 351.5 223.2 313 271.3L195 418.7C189.187 425.999 183.337 433.279 177.49 440.557C169.557 450.43 161.629 460.299 153.8 470.2C145 481.3 148.6 494.1 161.8 498.9C163.3 499.6 164.6 500.6 165.6 501.9L166.605 502.948C182.667 519.698 198.682 536.398 217 550.7C221.4 554.3 226.9 556.1 232.6 556C264.397 555.85 296.25 555.869 328.117 555.887C338.744 555.894 349.372 555.9 360 555.9C363.563 555.9 365.363 555.9 366.042 556.772C366.735 557.663 366.26 559.463 365.3 563.1C359.45 585.55 353.575 607.975 347.7 630.4C341.825 652.825 335.95 675.25 330.1 697.7C327.3 708.8 330.8 716 341.3 720.5C343.4 721.5 345.2 722.9 346.8 724.6C347.275 725.045 347.75 725.491 348.224 725.936C358.945 735.995 369.656 746.043 382.2 753.8C389.3 758.1 396.4 757.9 403.5 753.9C407.2 751.6 410.5 748.7 413.1 745.2C433.25 719.95 453.4 694.725 473.55 669.5C493.7 644.275 513.85 619.05 534 593.8L655.1 442.5C659.238 437.308 663.362 432.116 667.483 426.927C678.998 412.43 690.491 397.961 702.2 383.6C708.3 376 708.8 360.6 698.1 354.2C695.935 352.875 693.802 351.53 691.672 350.187C687.212 347.373 682.77 344.572 678.1 342C675.328 340.488 672.506 339.065 669.688 337.644C663.56 334.554 657.448 331.473 651.9 327.5C646.5 323.6 641.4 321.8 635 321.8C616.853 321.95 598.763 321.931 580.644 321.913ZM442.594 322.288H442.603C444.306 322.294 446.006 322.3 447.7 322.3V322.4C449.45 322.4 451.2 322.394 452.95 322.387H452.953C458.202 322.369 463.451 322.35 468.7 322.5C471.5 322.5 472.7 321.6 473.4 318.8C474.694 313.285 476.173 307.816 477.648 302.361L477.648 302.361L477.649 302.358C478.34 299.803 479.03 297.252 479.7 294.7C485.801 271.296 491.927 247.893 498.053 224.489C504.177 201.093 510.301 177.696 516.4 154.3C518 148.2 517.7 142.3 512 138.6C501.2 131.5 489.9 125 478.3 119.2C476.5 118.3 475.6 117.9 475 120.6C471.8 133.7 468.4 146.7 465 159.7C451.3 212.5 437.5 265.2 423.6 317.9C422.6 321.7 423.6 322.5 427.2 322.4C432.303 322.25 437.463 322.269 442.594 322.288ZM384.6 744.8C387.1 746.5 390 747.6 393 747.9C397.7 747.5 402 745.1 404.7 741.3C407.745 737.456 410.816 733.636 413.886 729.817L413.89 729.812L413.9 729.8L413.91 729.788L413.914 729.783C416.984 725.964 420.055 722.144 423.1 718.3L543.8 567.3C584.4 516.5 625.1 465.6 665.8 414.7C669.111 410.536 672.445 406.384 675.782 402.227C682.223 394.206 688.677 386.168 695 378C700 371.5 698.7 364.9 692 360.5C684.041 355.293 675.639 350.75 667.248 346.213C664.358 344.65 661.469 343.088 658.6 341.5C656.5 340.3 655.6 340.8 655.2 343C654.522 346.678 652.346 349.419 650.122 352.221L649.9 352.5C646.95 356.2 643.974 359.901 640.999 363.601C638.024 367.301 635.05 371 632.1 374.7C590.2 427.2 548.2 479.8 506.2 532.3C464.6 584.5 422.9 636.6 381.1 688.7C378.904 691.438 376.782 694.242 374.66 697.046L374.657 697.049L374.655 697.052L374.655 697.052C368.949 704.591 363.241 712.133 356.1 718.4C354.5 719.9 355.6 720.8 356.6 721.6C358.464 723.239 360.311 724.894 362.158 726.549C369.327 732.974 376.489 739.393 384.6 744.8ZM176 498.9H339C352 498.9 365 498.9 378 498.8C381.3 498.8 382.3 499.3 381.3 503C377.6 516.3 374.2 529.7 370.9 543C370.2 545.9 368.9 546.9 365.8 546.9C320.5 546.8 275.2 546.8 230 546.9C227.8 547 225.7 546.3 224.1 544.9C208.2 531.7 193.1 517.6 178.8 502.7C177.7 501.5 176.8 500.3 176 498.9Z" fill="#75FBCB"/>
</svg>
